<svg width="103" height="34" viewBox="0 0 103 34" fill="none" xmlns="http://www.w3.org/2000/svg">
<rect x="0.5" y="0.5" width="102" height="33" stroke="white"/>
<path d="M14.86 17.3V9.86L9.34 10.2V8.68L18.66 8.1V17.06L14.86 17.3ZM21.38 7.44L23.28 7.34V17.52L21.38 17.62V7.44ZM23.28 18.46V25.22H10.06V19.06L23.28 18.46ZM13.86 23.7H21.38V20.08L13.86 20.4V23.7ZM36.307 15.02V9.8L27.587 10.22V8.7L40.107 8.1V14.86L36.307 15.02ZM40.407 25.22H27.387V19.76L31.187 19.58V23.7H40.407V25.22ZM33.747 21.36V18.02L25.727 18.4V16.88L41.887 16.1V17.62L35.647 17.92V21.36H33.747ZM55.7941 8.44L57.6941 8.34V24.86H55.7941V8.44ZM53.0741 24.02H43.7541V9.68L52.4741 9.14V10.66L47.5541 10.96V22.5H53.0741V24.02ZM60.5611 9.72L71.4811 9.06V10.58L67.9611 10.8L67.2811 12.84L71.4211 23.14L69.8411 23.94L66.4411 15.32L63.4011 24.44L60.0411 22.52L65.8011 10.92L60.5611 11.24V9.72ZM72.6011 8.44L74.5011 8.34V15.5L76.6811 15.36V16.88L74.5011 17.02V24.86H72.6011V8.44ZM92.3081 25.22H78.8881V20.06L82.6881 19.88V23.7H92.3081V25.22ZM90.2081 7.44L92.1081 7.34V20.52L90.2081 20.62V7.44ZM87.4881 14.88C87.4881 15.4933 87.3948 16.0333 87.2081 16.5C87.0348 16.9667 86.7348 17.36 86.3081 17.68C85.8948 17.9867 85.3481 18.22 84.6681 18.38C83.9881 18.54 83.1481 18.62 82.1481 18.62C80.7481 18.62 79.7348 18.34 79.1081 17.78C78.4815 17.2067 78.1681 16.3067 78.1681 15.08V11.76C78.1681 11.1467 78.2548 10.6067 78.4281 10.14C78.6148 9.67333 78.9148 9.28667 79.3281 8.98C79.7548 8.66 80.3081 8.42 80.9881 8.26C81.6681 8.1 82.5081 8.02 83.5081 8.02C84.9081 8.02 85.9215 8.30667 86.5481 8.88C87.1748 9.44 87.4881 10.3333 87.4881 11.56V14.88ZM81.9681 15.56C81.9681 16.12 82.0815 16.52 82.3081 16.76C82.5481 16.9867 82.9615 17.1 83.5481 17.1C84.3348 17.1 84.8681 16.9667 85.1481 16.7C85.4415 16.42 85.5881 15.9733 85.5881 15.36V11.08C85.5881 10.52 85.4748 10.1267 85.2481 9.9C85.0215 9.66 84.6081 9.54 84.0081 9.54C83.2215 9.54 82.6815 9.68 82.3881 9.96C82.1081 10.2267 81.9681 10.6667 81.9681 11.28V15.56Z" fill="white"/>
</svg>
