<svg width="16" height="16" viewBox="0 0 16 16" fill="none" xmlns="http://www.w3.org/2000/svg">
<path fill-rule="evenodd" clip-rule="evenodd" d="M8 0.615387C3.93846 0.615387 0.615387 3.93846 0.615387 8C0.615387 12.0615 3.93846 15.3846 8 15.3846C12.0615 15.3846 15.3846 12.0615 15.3846 8C15.3846 3.93846 12.0615 0.615387 8 0.615387ZM11.6615 8.52296C11.6308 8.73834 11.4461 8.92296 11.2 8.92296H4.79999C4.55384 8.92296 4.36922 8.76911 4.33845 8.52296C4.30768 8.15373 4.30768 7.81527 4.33845 7.47681C4.36922 7.26142 4.55384 7.07681 4.79999 7.07681H11.2C11.4461 7.07681 11.6308 7.26142 11.6615 7.47681C11.6923 7.84604 11.6923 8.1845 11.6615 8.52296Z" fill="#FF2121"/>
</svg>
