<svg width="24" height="24" viewBox="0 0 24 24" fill="none" xmlns="http://www.w3.org/2000/svg">
<path d="M20.625 4.5C18.375 2.41125 14.7938 2.625 12.6113 4.80375L12 5.415L10.5563 6.85875C10.3921 7.00062 10.1804 7.0751 9.96354 7.06722C9.74672 7.05933 9.54092 6.96968 9.38751 6.81626C9.2341 6.66285 9.14444 6.45705 9.13655 6.24023C9.12867 6.02341 9.20315 5.81165 9.34502 5.6475L10.395 4.5975C10.4406 4.55164 10.4754 4.49621 10.4968 4.43522C10.5183 4.37423 10.5259 4.30922 10.5191 4.24493C10.5122 4.18063 10.4912 4.11867 10.4574 4.06354C10.4236 4.00842 10.378 3.96152 10.3238 3.92625C9.20603 3.20091 7.87008 2.88865 6.54663 3.04338C5.22318 3.19811 3.9953 3.81013 3.07502 4.77375C0.948769 6.9975 1.12502 10.71 3.28877 12.885L10.9613 20.5575C11.0971 20.6936 11.2584 20.8015 11.436 20.8752C11.6136 20.9488 11.804 20.9867 11.9963 20.9867C12.1885 20.9867 12.3789 20.9488 12.5565 20.8752C12.7341 20.8015 12.8954 20.6936 13.0313 20.5575L20.8238 12.75C21.3669 12.203 21.7939 11.5519 22.079 10.8358C22.3642 10.1196 22.5016 9.35324 22.483 8.58263C22.4644 7.81203 22.2903 7.05314 21.971 6.35155C21.6517 5.64996 21.1939 5.02016 20.625 4.5Z" fill="#0072FF"/>
</svg>
