<svg width="24" height="24" viewBox="0 0 24 24" fill="none" xmlns="http://www.w3.org/2000/svg">
<path d="M20.625 4.49999C18.375 2.41124 14.7938 2.62499 12.6113 4.80374L12 5.41499L10.5563 6.85874C10.3921 7.00061 10.1804 7.07509 9.96354 7.0672C9.74672 7.05932 9.54092 6.96966 9.38751 6.81625C9.2341 6.66284 9.14444 6.45704 9.13655 6.24022C9.12867 6.0234 9.20315 5.81164 9.34502 5.64749L10.395 4.59749C10.4406 4.55163 10.4754 4.49619 10.4968 4.4352C10.5183 4.37421 10.5259 4.30921 10.5191 4.24492C10.5122 4.18062 10.4912 4.11866 10.4574 4.06353C10.4236 4.00841 10.378 3.9615 10.3238 3.92624C9.20603 3.2009 7.87008 2.88864 6.54663 3.04337C5.22318 3.1981 3.9953 3.81012 3.07502 4.77374C0.948769 6.99749 1.12502 10.71 3.28877 12.885L10.9613 20.5575C11.0971 20.6936 11.2584 20.8015 11.436 20.8751C11.6136 20.9488 11.804 20.9867 11.9963 20.9867C12.1885 20.9867 12.3789 20.9488 12.5565 20.8751C12.7341 20.8015 12.8954 20.6936 13.0313 20.5575L20.8238 12.75C21.3669 12.203 21.7939 11.5519 22.079 10.8358C22.3642 10.1196 22.5016 9.35322 22.483 8.58262C22.4644 7.81202 22.2903 7.05313 21.971 6.35154C21.6517 5.64995 21.1939 5.02015 20.625 4.49999Z" fill="white"/>
</svg>
