<svg width="16" height="16" viewBox="0 0 16 16" fill="none" xmlns="http://www.w3.org/2000/svg">
<path fill-rule="evenodd" clip-rule="evenodd" d="M8 0.615387C3.90769 0.615387 0.615387 3.90769 0.615387 8C0.615387 12.0923 3.90769 15.3846 8 15.3846C12.0923 15.3846 15.3846 12.0923 15.3846 8C15.3846 3.90769 12.0923 0.615387 8 0.615387ZM8.00018 4.33849C8.52326 4.33849 8.92326 4.73849 8.92326 5.26156C8.92326 5.78464 8.52326 6.18464 8.00018 6.18464C7.4771 6.18464 7.0771 5.78464 7.0771 5.26156C7.0771 4.73849 7.4771 4.33849 8.00018 4.33849ZM9.5385 10.8C9.5385 10.9539 9.41543 11.0769 9.23081 11.0769H6.76927C6.61543 11.0769 6.46158 10.9846 6.46158 10.8V10.1846C6.46158 10.0308 6.58466 9.84617 6.76927 9.84617C6.92312 9.84617 7.07696 9.75386 7.07696 9.56924V8.33847C7.07696 8.18463 6.95389 8.00001 6.76927 8.00001C6.61543 8.00001 6.46158 7.9077 6.46158 7.72309V7.1077C6.46158 6.95386 6.58466 6.76924 6.76927 6.76924H8.61543C8.76927 6.76924 8.92312 6.92309 8.92312 7.1077V9.56924C8.92312 9.72309 9.0462 9.84617 9.23081 9.84617C9.38466 9.84617 9.5385 10 9.5385 10.1846V10.8Z" fill="white"/>
</svg>
