<svg width="16" height="16" viewBox="0 0 16 16" fill="none" xmlns="http://www.w3.org/2000/svg">
<path fill-rule="evenodd" clip-rule="evenodd" d="M8 1.23077C3.90769 1.23077 0.615387 4.24616 0.615387 8C0.615387 9.2 0.953848 10.3077 1.53846 11.3231C1.6 11.4462 1.63077 11.6 1.6 11.7231L0.923079 13.8462C0.800002 14.2462 1.16923 14.5846 1.56923 14.4615L3.72308 13.7231C3.87692 13.6615 4.03077 13.6923 4.15385 13.7846C5.29231 14.4308 6.61539 14.8 8.03077 14.8C12.1231 14.8 15.4154 11.7846 15.4154 8.03077C15.3538 4.24616 12.0615 1.23077 8 1.23077ZM11.5386 6.49239L7.78474 10.1847C7.63089 10.3385 7.47705 10.4001 7.26166 10.4001C7.07705 10.4001 6.89243 10.3385 6.73858 10.1847L4.9232 8.40009C4.76935 8.24624 4.76935 8.03086 4.9232 7.90778L5.44628 7.41547C5.60012 7.26162 5.81551 7.26162 5.96935 7.41547L7.26166 8.70778L10.4924 5.50778C10.6463 5.35393 10.8617 5.35393 11.0155 5.50778L11.5386 6.00009C11.6617 6.12316 11.6617 6.36932 11.5386 6.49239Z" fill="#00B89B"/>
</svg>
