<svg width="16" height="16" viewBox="0 0 16 16" fill="none" xmlns="http://www.w3.org/2000/svg">
<path fill-rule="evenodd" clip-rule="evenodd" d="M10.6769 9.53847L10.5538 9.56924C10.0923 9.72308 9.59997 9.5077 9.41535 9.04616L8.39997 6.33847C7.59998 4.18462 5.16922 3.13847 3.04615 4.03078C1.04615 4.86155 0.153847 7.20001 0.892306 9.23077L1.84615 11.8462C1.99999 12.3077 1.75384 12.8 1.32307 12.9538L1.2 12.9846C0.676922 13.1692 0.430769 13.7846 0.615384 14.3077L0.738461 14.6462C0.799999 14.8 1.01538 14.9231 1.2 14.8308L11.7846 10.9231C11.9692 10.8615 12.0615 10.6154 12 10.4308L11.8769 10.0923C11.7846 9.6 11.2 9.32308 10.6769 9.53847ZM8.09229 13.4154L5.78461 14.2769C5.63076 14.3385 5.56923 14.5231 5.66153 14.6462C6.03076 15.2615 6.79999 15.5077 7.47691 15.2615C8.15383 15.0154 8.55383 14.3077 8.46152 13.6308C8.39999 13.4769 8.21537 13.3846 8.09229 13.4154ZM15.1385 8.8C15.6616 7.04616 15.3847 5.16924 14.4308 3.63078C13.477 2.06155 11.9077 0.984623 10.1231 0.646161C9.96929 0.615392 9.84621 0.7077 9.84621 0.830777L9.69236 1.69231C9.6616 1.81539 9.7539 1.9077 9.87698 1.93847C11.2616 2.21539 12.4924 3.07693 13.2616 4.3077C14.0308 5.53847 14.2154 7.01539 13.8462 8.4C13.8154 8.52308 13.877 8.64616 14 8.67693L14.8308 8.95385C14.9847 8.95385 15.1077 8.92308 15.1385 8.8ZM11.7538 5.23077C11.2615 4.43077 10.4615 3.90769 9.5384 3.72308C9.41532 3.69231 9.29224 3.78461 9.26148 3.90769L9.16917 4.8C9.16917 4.92307 9.23071 5.01538 9.35378 5.04615C9.87686 5.16923 10.3384 5.47692 10.6153 5.93846C10.8922 6.4 10.9845 6.95384 10.8307 7.44615C10.7999 7.53846 10.8615 7.66154 10.9538 7.6923L11.7845 8.03077C11.9076 8.0923 12.0307 8 12.0922 7.87692C12.3692 6.98461 12.2461 6.03077 11.7538 5.23077Z" fill="#FFD910"/>
</svg>
